<svg xmlns="http://www.w3.org/2000/svg" width="1200" height="720" viewBox="0 0 1200 720">
  <style>
    .t{font:700 24px Arial;fill:#0f172a}.s{font:500 15px Arial;fill:#1e293b}.b{fill:#eef2ff;stroke:#1e3a8a;stroke-width:2}.a{stroke:#1e3a8a;stroke-width:2;marker-end:url(#m)}
  </style>
  <defs><marker id="m" markerWidth="10" markerHeight="10" refX="8" refY="3" orient="auto"><path d="M0,0 L0,6 L9,3 z" fill="#1e3a8a"/></marker></defs>
  <text x="40" y="50" class="t">Payout Yaşam Döngüsü (Talep -> Onay -> Callback)</text>

  <rect x="40" y="110" width="220" height="80" class="b"/><text x="70" y="155" class="s">Vendor: request_payout</text>
  <rect x="320" y="110" width="240" height="80" class="b"/><text x="350" y="155" class="s">mhm_payout (pending)</text>
  <rect x="620" y="110" width="250" height="80" class="b"/><text x="650" y="155" class="s">Governance check</text>
  <rect x="930" y="110" width="220" height="80" class="b"/><text x="955" y="155" class="s">Atomic approve</text>

  <rect x="320" y="290" width="240" height="90" class="b"/><text x="345" y="340" class="s">Ledger: payout_debit (-)</text>
  <rect x="620" y="290" width="250" height="90" class="b"/><text x="665" y="340" class="s">post_status=publish</text>

  <rect x="40" y="500" width="260" height="90" class="b"/><text x="65" y="550" class="s">Processor callback</text>
  <rect x="360" y="500" width="260" height="90" class="b"/><text x="385" y="545" class="s">confirmed -> meta only</text>
  <rect x="680" y="500" width="420" height="90" class="b"/><text x="710" y="545" class="s">failed -> Ledger payout_reversal (+)</text>

  <line x1="260" y1="150" x2="320" y2="150" class="a"/>
  <line x1="560" y1="150" x2="620" y2="150" class="a"/>
  <line x1="870" y1="150" x2="930" y2="150" class="a"/>
  <line x1="1040" y1="190" x2="440" y2="290" class="a"/>
  <line x1="1040" y1="190" x2="740" y2="290" class="a"/>
  <line x1="740" y1="380" x2="170" y2="500" class="a"/>
  <line x1="300" y1="545" x2="360" y2="545" class="a"/>
  <line x1="620" y1="545" x2="680" y2="545" class="a"/>
</svg>
