<svg xmlns="http://www.w3.org/2000/svg" width="1200" height="700" viewBox="0 0 1200 700"><style>.t{font:700 24px Arial;fill:#111827}.s{font:500 15px Arial;fill:#1f2937}.b{fill:#ede9fe;stroke:#6d28d9;stroke-width:2}.a{stroke:#6d28d9;stroke-width:2;marker-end:url(#m)}</style><defs><marker id="m" markerWidth="10" markerHeight="10" refX="8" refY="3" orient="auto"><path d="M0,0 L0,6 L9,3 z" fill="#6d28d9"/></marker></defs><text x="40" y="50" class="t">Finansal Modül Bağımlılık Grafiği</text><rect x="80" y="120" width="260" height="80" class="b"/><text x="120" y="165" class="s">Payout UI/Admin</text><rect x="420" y="120" width="300" height="80" class="b"/><text x="450" y="165" class="s">Governance + AtomicPayout</text><rect x="800" y="120" width="300" height="80" class="b"/><text x="860" y="165" class="s">Ledger</text><rect x="250" y="320" width="300" height="80" class="b"/><text x="285" y="365" class="s">CommissionResolver</text><rect x="650" y="320" width="300" height="80" class="b"/><text x="690" y="365" class="s">Policy/Tier Services</text><rect x="420" y="520" width="360" height="90" class="b"/><text x="470" y="570" class="s">Analytics + REST Callback</text><line x1="340" y1="160" x2="420" y2="160" class="a"/><line x1="720" y1="160" x2="800" y2="160" class="a"/><line x1="570" y1="200" x2="400" y2="320" class="a"/><line x1="900" y1="200" x2="800" y2="320" class="a"/><line x1="950" y1="360" x2="760" y2="520" class="a"/><line x1="550" y1="360" x2="560" y2="520" class="a"/></svg>
