<svg xmlns="http://www.w3.org/2000/svg" width="1200" height="700" viewBox="0 0 1200 700"><style>.t{font:700 24px Arial;fill:#111827}.s{font:500 15px Arial;fill:#1f2937}.b{fill:#fff7ed;stroke:#9a3412;stroke-width:2}.a{stroke:#9a3412;stroke-width:2;marker-end:url(#m)}</style><defs><marker id="m" markerWidth="10" markerHeight="10" refX="8" refY="3" orient="auto"><path d="M0,0 L0,6 L9,3 z" fill="#9a3412"/></marker></defs><text x="40" y="50" class="t">Governance Yetki + Freeze + Audit Akışı</text><rect x="80" y="120" width="300" height="90" class="b"/><text x="110" y="170" class="s">Capability kontrolü</text><rect x="450" y="120" width="300" height="90" class="b"/><text x="505" y="170" class="s">Freeze kontrolü</text><rect x="820" y="120" width="300" height="90" class="b"/><text x="865" y="170" class="s">Atomic approve</text><rect x="260" y="330" width="300" height="90" class="b"/><text x="300" y="380" class="s">Deny -> audit(action=deny)</text><rect x="640" y="330" width="360" height="90" class="b"/><text x="670" y="380" class="s">Success -> audit(action=approve)</text><line x1="380" y1="165" x2="450" y2="165" class="a"/><line x1="750" y1="165" x2="820" y2="165" class="a"/><line x1="230" y1="210" x2="380" y2="330" class="a"/><line x1="560" y1="210" x2="390" y2="330" class="a"/><line x1="970" y1="210" x2="820" y2="330" class="a"/></svg>
