<svg xmlns="http://www.w3.org/2000/svg" width="1200" height="700" viewBox="0 0 1200 700"><style>.t{font:700 24px Arial;fill:#111827}.s{font:500 15px Arial;fill:#1f2937}.b{fill:#fef3c7;stroke:#b45309;stroke-width:2}.a{stroke:#b45309;stroke-width:2;marker-end:url(#m)}</style><defs><marker id="m" markerWidth="10" markerHeight="10" refX="8" refY="3" orient="auto"><path d="M0,0 L0,6 L9,3 z" fill="#b45309"/></marker></defs><text x="40" y="50" class="t">Finansal Veri Sözlüğü - Key Haritası</text><rect x="80" y="120" width="320" height="100" class="b"/><text x="120" y="170" class="s">Options</text><text x="120" y="195" class="s">freeze, min_payout, webhook_secret</text><rect x="440" y="120" width="320" height="100" class="b"/><text x="490" y="170" class="s">User Meta</text><text x="490" y="195" class="s">vendor_rate, vendor_freeze</text><rect x="800" y="120" width="320" height="100" class="b"/><text x="860" y="170" class="s">Post Meta</text><text x="860" y="195" class="s">payout_amount, status, ext_ref</text><rect x="280" y="350" width="640" height="120" class="b"/><text x="330" y="405" class="s">Tables: ledger / commission_policy / payout_audit</text><rect x="420" y="540" width="360" height="90" class="b"/><text x="460" y="590" class="s">Capabilities: approve/freeze/audit</text><line x1="240" y1="220" x2="460" y2="350" class="a"/><line x1="600" y1="220" x2="600" y2="350" class="a"/><line x1="960" y1="220" x2="740" y2="350" class="a"/><line x1="600" y1="470" x2="600" y2="540" class="a"/></svg>
