<svg xmlns="http://www.w3.org/2000/svg" width="1200" height="680" viewBox="0 0 1200 680">
  <style>
    .t{font:600 22px Arial;fill:#0f172a}.s{font:500 16px Arial;fill:#1e293b}.b{fill:#e2e8f0;stroke:#334155;stroke-width:2}.a{stroke:#0f172a;stroke-width:2;marker-end:url(#m)}
  </style>
  <defs><marker id="m" markerWidth="10" markerHeight="10" refX="8" refY="3" orient="auto"><path d="M0,0 L0,6 L9,3 z" fill="#0f172a"/></marker></defs>
  <text x="40" y="50" class="t">Rentiva Finansal Çekirdek - Genel Mimari</text>
  <rect x="40" y="90" width="210" height="80" class="b"/><text x="62" y="135" class="s">CommissionResolver</text>
  <rect x="320" y="90" width="250" height="80" class="b"/><text x="345" y="135" class="s">PolicyService / TierService</text>
  <rect x="640" y="90" width="200" height="80" class="b"/><text x="695" y="135" class="s">Ledger</text>
  <rect x="900" y="90" width="240" height="80" class="b"/><text x="940" y="135" class="s">AnalyticsService</text>

  <rect x="40" y="280" width="240" height="80" class="b"/><text x="75" y="325" class="s">PayoutService</text>
  <rect x="350" y="280" width="250" height="80" class="b"/><text x="370" y="325" class="s">AtomicPayoutService</text>
  <rect x="670" y="280" width="220" height="80" class="b"/><text x="700" y="325" class="s">GovernanceService</text>
  <rect x="950" y="280" width="190" height="80" class="b"/><text x="980" y="325" class="s">Payout Audit</text>

  <rect x="350" y="470" width="260" height="90" class="b"/><text x="375" y="520" class="s">PayoutCallbackController</text>
  <rect x="690" y="470" width="250" height="90" class="b"/><text x="720" y="520" class="s">PayoutWebhookAuth (HMAC)</text>

  <line x1="250" y1="130" x2="320" y2="130" class="a"/>
  <line x1="570" y1="130" x2="640" y2="130" class="a"/>
  <line x1="840" y1="130" x2="900" y2="130" class="a"/>
  <line x1="280" y1="320" x2="350" y2="320" class="a"/>
  <line x1="600" y1="320" x2="670" y2="320" class="a"/>
  <line x1="890" y1="320" x2="950" y2="320" class="a"/>
  <line x1="450" y1="360" x2="450" y2="470" class="a"/>
  <line x1="610" y1="515" x2="690" y2="515" class="a"/>
  <line x1="760" y1="280" x2="760" y2="170" class="a"/>
</svg>
